# xmcd
#
# Track frame offsets: 
#        182
#        13150
#        28550
#        43712
#        56400
#        71062
#        88650
#        106612
#        116562
#        131650
#        143700
#        162687
#        173462
#        187337
#
# Disc length: 2662 seconds
#
# Revision: 0
# Processed by: cddbd v1.5.1PL2 Copyright (c) Steve Scherf et al.
# Submitted via: ExactAudioCopy v0.95b4
#
DISCID=c10a640e
DTITLE=Various Artist - Country Highlights
DYEAR=1995
DGENRE=Country
TTITLE0=Super Country - Motor Home Driving
TTITLE1=Jeff Turner - Why did you take my Guitar
TTITLE2=Suzanne Klee - It's a bad night for good Girls
TTITLE3=Harry's Country Band - I'll need someone to hold me
TTITLE4=Rodeo Ranchers - Big Girls they don't cry
TTITLE5=Bill Banger Band - Easy at the Wheel
TTITLE6=The Sunday Skifflers - Ontario's Snow
TTITLE7=Andy Martin - Highway 24
TTITLE8=Super Country - Don Jesus
TTITLE9=Jan Hiermeyer - Jubilee
TTITLE10=Harry's Country Band - City of New Orleans
TTITLE11=Suzanne Klee and Harry Shannon - What are you waitin' for
TTITLE12=Jeff Turner - Mostly Alone
TTITLE13=Andy Martin and The Valley Band - It's your Ponytail
EXTD=
EXTT0=
EXTT1=
EXTT2=
EXTT3=
EXTT4=
EXTT5=
EXTT6=
EXTT7=
EXTT8=
EXTT9=
EXTT10=
EXTT11=
EXTT12=
EXTT13=
PLAYORDER=
